PathFileType	4	(X/Y/Z)	C:\Users\Vitor Bertoli\OneDrive\Documents\Yolotestes\IMG_0211_Sports2D\IMG_0211_Sports2D_m_person00.trc
DataRate	CameraRate	NumFrames	NumMarkers	Units	OrigDataRate	OrigDataStartFrame	OrigNumFrames
116	116	6	22	m	116	109	436
Frame#	Time	Hip			RHip			RKnee			RAnkle			RBigToe			RSmallToe			RHeel			LHip			LKnee			LAnkle			LBigToe			LSmallToe			LHeel			Neck			Head			Nose			RShoulder			RElbow			RWrist			LShoulder			LElbow			LWrist		
		X1	Y1	Z1	X2	Y2	Z2	X3	Y3	Z3	X4	Y4	Z4	X5	Y5	Z5	X6	Y6	Z6	X7	Y7	Z7	X8	Y8	Z8	X9	Y9	Z9	X10	Y10	Z10	X11	Y11	Z11	X12	Y12	Z12	X13	Y13	Z13	X14	Y14	Z14	X15	Y15	Z15	X16	Y16	Z16	X17	Y17	Z17	X18	Y18	Z18	X19	Y19	Z19	X20	Y20	Z20	X21	Y21	Z21	X22	Y22	Z22
109	0.939655172413793	2.3459476257839844	0.6963455911639423	0.0	2.2607421550643214	0.7251337751143949	0.0	2.1752466990616233	0.3012210350141964	0.0	1.7708499833271873	0.2125851862307377	0.0	1.7258662380824017	0.015302103953863869	0.0	1.6906171290035026	0.05821389618925373	0.0	1.7028731125154974	0.23254008290036635	0.0	2.4310685121778595	0.6821184593332472	0.0	2.5700340279739873	0.35070672101705286	0.0	2.207034346388918	0.10149331462578885	0.0	2.3434684573384255	-0.012862547630579133	0.0	2.329430516035264	0.00567572781345513	0.0	2.1284120415021954	0.0766427816637065	0.0	2.7696511385326765	1.1092595687632496	0.0	2.9481256832344886	1.3373730552179024	0.0	2.9442468555747787	1.178053101475287	0.0	2.6418795792080036	1.0965458862487987	0.0	2.4168220015118425	0.9014175498924628	0.0	2.482114267080584	0.6517045971328526	0.0	2.8016983523604013	0.9899290219958051	0.0	2.773762053200134	0.7429703781846342	0.0	2.7915584985123667	0.5020263394418899	0.0
110	0.9482758620689655	2.3619017521205277	0.7014202565200623	0.0	2.278170481669142	0.7291239129075441	0.0	2.216377818341009	0.3031368034849736	0.0	1.8095519786491236	0.22235597724730805	0.0	1.766508212986661	0.024346818327227616	0.0	1.73106187047242	0.06731054729722176	0.0	1.7401115081224363	0.24290399256273942	0.0	2.4462350274069724	0.6884675152872068	0.0	2.575167669784843	0.34968809039485155	0.0	2.2086365448597833	0.10086653934633781	0.0	2.343582482371495	-0.01297626079160884	0.0	2.32997910886931	0.006342043422089939	0.0	2.1301894528269534	0.07639895736044215	0.0	2.789395585911159	1.107919713525977	0.0	2.9697676981222676	1.3347411921239432	0.0	2.9641249981167936	1.1761721114122947	0.0	2.6625284664303517	1.0975097429053384	0.0	2.4286486700927314	0.9096643972285341	0.0	2.469256796319647	0.6539813101610541	0.0	2.8197783299361387	0.9878103626694521	0.0	2.8045405248474458	0.7372042375888248	0.0	2.8352524909168966	0.4954692441841766	0.0
111	0.9568965517241379	2.378138610315287	0.7062493063841085	0.0	2.296078251378934	0.7326915945098669	0.0	2.2592047808964444	0.30616982214006483	0.0	1.85013125743363	0.2306452830280338	0.0	1.809597132576631	0.03272807890013656	0.0	1.773799208587322	0.07530184571577547	0.0	1.7791491845249097	0.25138005643432026	0.0	2.461354039176197	0.6944300895236448	0.0	2.5796889079440346	0.3488219920840831	0.0	2.2100850549990962	0.10012585280993667	0.0	2.343507267728523	-0.012986018215608039	0.0	2.3299286030683204	0.007076697641599538	0.0	2.131929217781311	0.07584098866782511	0.0	2.8092154480098257	1.1065503602432116	0.0	2.9913245288489456	1.332222466757739	0.0	2.9838597079510265	1.1743724297838274	0.0	2.683204849901012	1.0983547528688782	0.0	2.440647575588709	0.918803888775694	0.0	2.456359232477799	0.6590364826115871	0.0	2.8385244389136606	0.9858928707748581	0.0	2.8364114575851542	0.7333132816855116	0.0	2.881592886849067	0.4934705278909852	0.0
112	0.9655172413793103	2.394568797594628	0.7106849178085756	0.0	2.3145230734067415	0.7358068297608378	0.0	2.30352736627771	0.3103952614523956	0.0	1.892389770853495	0.2372952482591847	0.0	1.8549784698011949	0.04020299851615769	0.0	1.818754227159597	0.08192271062285562	0.0	1.8198374116300025	0.25786664653544766	0.0	2.476160236635667	0.6998017320038658	0.0	2.5834342207872365	0.3480628496813173	0.0	2.211230664971049	0.09931864132283143	0.0	2.343095880093069	-0.012936276030338013	0.0	2.3292671223083783	0.007825679853477237	0.0	2.1334679855073393	0.07492280954231927	0.0	2.8290965374297055	1.1052066331816777	0.0	3.012792357303878	1.329870549243486	0.0	3.003437278031742	1.1726674506535402	0.0	2.7038884693578233	1.0991533840359342	0.0	2.4529786888886393	0.9290362013097815	0.0	2.4440172657598658	0.6671041890079673	0.0	2.858087758960817	0.9842091724408709	0.0	2.8692998031024266	0.7312964785438459	0.0	2.93002927700236	0.4958458731300323	0.0
113	0.9741379310344828	2.4111041561225948	0.7146299640514128	0.0	2.3335591122389565	0.7384880186932841	0.0	2.3491330085076054	0.3158430365188153	0.0	1.936189498301415	0.2422153218578234	0.0	1.9026406765803774	0.04657048389361169	0.0	1.865999980197945	0.08698581830789016	0.0	1.862103576137948	0.2622997947198401	0.0	2.4904185006877735	0.7044822305372286	0.0	2.5862787015552646	0.3473755214202078	0.0	2.2119461629892525	0.09853362157821777	0.0	2.342204698996985	-0.01290575282988767	0.0	2.328013134432797	0.008519685159429193	0.0	2.1346509290383056	0.07365616866271267	0.0	2.8490074084752655	1.1039598814843943	0.0	3.034150447978142	1.327734668011853	0.0	3.0228579007172067	1.1710884732534788	0.0	2.72455820100956	1.099972504446506	0.0	2.4657783565426263	0.9404694129491761	0.0	2.432794608316394	0.6782186574872257	0.0	2.878587524030338	0.9828121461253153	0.0	2.903110487864278	0.731104510951922	0.0	2.979967306666728	0.5022856382645018	0.0
114	0.9827586206896551	2.4276768764766516	0.7180294195479455	0.0	2.3532244400793347	0.740780439453794	0.0	2.395772901530831	0.3224947036299845	0.0	1.9814591464211075	0.2453691870378898	0.0	1.9527148991129402	0.05169112288558474	0.0	1.915727787565697	0.09038479135762084	0.0	1.9059611508777479	0.2646424363173314	0.0	2.503954697770512	0.7084742518681049	0.0	2.5881277954906277	0.34673613952250665	0.0	2.212159478731252	0.09788022952453623	0.0	2.3407493026671005	-0.013011334416763965	0.0	2.3262274067960735	0.009092638721445499	0.0	2.135361441695058	0.0721221070789837	0.0	2.8689253824291043	1.1028873060885744	0.0	3.0553608521658226	1.325866953085378	0.0	3.0421355113627224	1.1696864130094955	0.0	2.7451927006456436	1.1008792853412075	0.0	2.479152139188294	0.9531043144650586	0.0	2.4231937838900572	0.6921882640369654	0.0	2.90012153191274	0.9817935711014742	0.0	2.9377189953625806	0.7326599438802578	0.0	3.030797662747037	0.5124213190882959	0.0
